<svg width="213" height="189" viewBox="0 0 213 189" fill="none" xmlns="http://www.w3.org/2000/svg">
<rect x="24.6747" y="7.31104" width="161.756" height="137.081" fill="#BEC3C8"/>
<rect x="16.4498" y="144.392" width="178.206" height="17.3636" fill="#BEC3C8"/>
<rect x="12.0001" y="156" width="189" height="16" fill="#BEC3C8"/>
<rect x="8.22491" y="163.584" width="196.483" height="18.2775" fill="#BEC3C8"/>
<rect x="186" y="8" width="150" height="8.99999" transform="rotate(90 186 8)" fill="url(#paint0_linear_18_83)"/>
<path d="M24.6746 7.31104H186.431V14.622H24.6746V7.31104Z" fill="url(#paint1_linear_18_83)"/>
<path d="M32.311 8L32.311 169.756L25 169.756L25 8L32.311 8Z" fill="url(#paint2_linear_18_83)"/>
<rect x="8.00006" y="175" width="196" height="10" fill="#8E929B"/>
<path d="M24.6746 159.273C24.6746 157.616 26.0178 156.273 27.6746 156.273H63.7129C65.3698 156.273 66.7129 157.616 66.7129 159.273V169.067H24.6746V159.273Z" fill="#F6F6F6"/>
<path d="M69 159C69 157.343 70.3431 156 72 156H139C140.657 156 142 157.343 142 159V166H69V159Z" fill="#D9D9D9"/>
<path d="M144.392 159.273C144.392 157.616 145.735 156.273 147.392 156.273H190.742C192.398 156.273 193.742 157.616 193.742 159.273V169.067H144.392V159.273Z" fill="#F6F6F6"/>
<rect x="8.22491" y="166.325" width="195.569" height="8.22488" fill="#F6F6F6"/>
<rect x="34.7273" y="135.254" width="142.565" height="21.0191" rx="2" fill="#55616E"/>
<rect x="41.1244" y="144.392" width="11.8804" height="6.39713" rx="1" fill="#D9D9D9"/>
<rect x="58.488" y="144.392" width="11.8804" height="6.39713" rx="1" fill="#D9D9D9"/>
<rect x="75.8517" y="144.392" width="11.8804" height="6.39713" rx="1" fill="#D9D9D9"/>
<rect x="93.2153" y="144.392" width="11.8804" height="6.39713" rx="1" fill="#D9D9D9"/>
<rect x="110.579" y="144.392" width="11.8804" height="6.39713" rx="1" fill="#D9D9D9"/>
<rect x="127.943" y="144.392" width="11.8804" height="6.39713" rx="1" fill="#D9D9D9"/>
<rect x="145.306" y="144.392" width="11.8804" height="6.39713" rx="1" fill="#D9D9D9"/>
<rect x="162.67" y="144.392" width="11.8804" height="6.39713" rx="1" fill="#D9D9D9"/>
<rect x="53.0048" y="133.426" width="5.48325" height="10.9665" fill="#ADB2B9"/>
<rect x="70.3684" y="133.426" width="5.48325" height="10.9665" fill="#ADB2B9"/>
<rect x="87.7321" y="133.426" width="5.48325" height="10.9665" fill="#ADB2B9"/>
<rect x="105.096" y="133.426" width="5.48325" height="10.9665" fill="#ADB2B9"/>
<rect x="122.459" y="133.426" width="5.48325" height="10.9665" fill="#ADB2B9"/>
<rect x="139.823" y="133.426" width="5.48325" height="10.9665" fill="#ADB2B9"/>
<rect x="157.187" y="133.426" width="5.48325" height="10.9665" fill="#ADB2B9"/>
<rect x="172.722" y="133.426" width="5.48325" height="10.9665" fill="#ADB2B9"/>
<rect x="34.7273" y="134.34" width="5.48325" height="10.9665" fill="#ADB2B9"/>
<rect x="34.7273" y="127.943" width="143.478" height="7.311" fill="#ADB2B9"/>
<path d="M25 3C25 1.34315 26.3431 0 28 0H183C184.657 0 186 1.34315 186 3V8H25V3Z" fill="#041025"/>
<path d="M205 186C205 187.657 203.657 189 202 189L9 189C7.34315 189 6 187.657 6 186L6 181L205 181L205 186Z" fill="#041025"/>
<path d="M192 8C193.657 8 195 9.34315 195 11L195 146L189 146C187.343 146 186 144.657 186 143L186 8L192 8Z" fill="#041025"/>
<path d="M16 146L16 11C16 9.34315 17.3431 8 19 8L25 8L25 143C25 144.657 23.6569 146 22 146L16 146Z" fill="#041025"/>
<path d="M12.0527 156.359C10.3958 156.359 9.05267 155.016 9.05267 153.359L9.05267 148.392C9.05267 146.736 10.3958 145.392 12.0527 145.392L17.2776 145.392L17.2776 156.359L12.0527 156.359Z" fill="#041025"/>
<path d="M199.88 145.306C201.537 145.306 202.88 146.649 202.88 148.306L202.88 153.273C202.88 154.93 201.537 156.273 199.88 156.273L194.655 156.273L194.655 145.306L199.88 145.306Z" fill="#041025"/>
<path d="M6.65552 166.325C4.99866 166.325 3.65552 164.982 3.65552 163.325L3.65552 158.359C3.65552 156.702 4.99866 155.359 6.65552 155.359L11.8804 155.359L11.8804 166.325L6.65552 166.325Z" fill="#041025"/>
<path d="M204.45 155.359C206.107 155.359 207.45 156.702 207.45 158.359L207.45 163.325C207.45 164.982 206.107 166.325 204.45 166.325L199.225 166.325L199.225 155.359L204.45 155.359Z" fill="#041025"/>
<path d="M3 181.861C1.34314 181.861 -5.87108e-08 180.518 -1.31134e-07 178.861L-5.47961e-07 169.325C-6.20384e-07 167.668 1.34314 166.325 3 166.325L8.22488 166.325L8.22488 181.861L3 181.861Z" fill="#041025"/>
<path d="M209.019 166.325C210.676 166.325 212.019 167.669 212.019 169.325L212.019 178.861C212.019 180.518 210.676 181.861 209.019 181.861L203.794 181.861L203.794 166.325L209.019 166.325Z" fill="#041025"/>
<rect x="35" y="18" width="143.478" height="110.579" rx="3" fill="#0F1A29"/>
<rect x="41" y="23" width="131" height="101" rx="2" fill="#2E3C4E"/>
<rect x="78.5933" y="53.9186" width="6.39713" height="6.39713" rx="1" fill="#60ED65"/>
<rect x="72.1962" y="60.3157" width="6.39713" height="6.39713" rx="1" fill="#60ED65"/>
<path d="M65.7991 67.7128C65.7991 67.1605 66.2468 66.7128 66.7991 66.7128H71.1962C71.7485 66.7128 72.1962 67.1605 72.1962 67.7128V73.1099H66.7991C66.2468 73.1099 65.7991 72.6622 65.7991 72.1099V67.7128Z" fill="#60ED65"/>
<path d="M59.4019 74.11C59.4019 73.5577 59.8496 73.11 60.4019 73.11H65.799V79.5071H60.4019C59.8496 79.5071 59.4019 79.0594 59.4019 78.5071V74.11Z" fill="#60ED65"/>
<rect x="65.7991" y="73.11" width="6.39713" height="6.39713" fill="#60ED65"/>
<path d="M65.7991 80.5071C65.7991 79.9548 66.2468 79.5071 66.7991 79.5071H72.1962V84.9042C72.1962 85.4565 71.7485 85.9042 71.1962 85.9042H66.7991C66.2468 85.9042 65.7991 85.4565 65.7991 84.9042V80.5071Z" fill="#60ED65"/>
<rect x="72.1962" y="85.9042" width="6.39713" height="6.39713" rx="1" fill="#60ED65"/>
<rect x="78.5933" y="92.3013" width="6.39713" height="6.39713" rx="1" fill="#60ED65"/>
<rect x="132.512" y="98.6985" width="6.39713" height="6.39713" rx="1" transform="rotate(-180 132.512 98.6985)" fill="#60ED65"/>
<rect x="138.909" y="92.3014" width="6.39713" height="6.39713" rx="1" transform="rotate(-180 138.909 92.3014)" fill="#60ED65"/>
<path d="M145.306 84.9042C145.306 85.4565 144.858 85.9042 144.306 85.9042L139.909 85.9042C139.357 85.9042 138.909 85.4565 138.909 84.9042L138.909 79.507L144.306 79.507C144.858 79.507 145.306 79.9548 145.306 80.507L145.306 84.9042Z" fill="#60ED65"/>
<path d="M151.703 78.5071C151.703 79.0594 151.256 79.5071 150.703 79.5071L145.306 79.5071L145.306 73.11L150.703 73.11C151.256 73.11 151.703 73.5577 151.703 74.11L151.703 78.5071Z" fill="#60ED65"/>
<rect x="145.306" y="79.5071" width="6.39713" height="6.39713" transform="rotate(-180 145.306 79.5071)" fill="#60ED65"/>
<path d="M145.306 72.11C145.306 72.6623 144.858 73.11 144.306 73.11L138.909 73.11L138.909 67.7129C138.909 67.1606 139.357 66.7129 139.909 66.7129L144.306 66.7129C144.858 66.7129 145.306 67.1606 145.306 67.7129L145.306 72.11Z" fill="#60ED65"/>
<rect x="138.909" y="66.7129" width="6.39713" height="6.39713" rx="1" transform="rotate(-180 138.909 66.7129)" fill="#60ED65"/>
<rect x="132.512" y="60.3157" width="6.39713" height="6.39713" rx="1" transform="rotate(-180 132.512 60.3157)" fill="#60ED65"/>
<rect x="97.8708" y="98.6985" width="6.39713" height="6.39713" rx="1" transform="rotate(-180 97.8708 98.6985)" fill="#60ED65"/>
<rect x="100.526" y="92.3014" width="6.39713" height="6.39713" rx="1" transform="rotate(-180 100.526 92.3014)" fill="#60ED65"/>
<rect x="104.182" y="85.9042" width="6.39713" height="6.39713" rx="1" transform="rotate(-180 104.182 85.9042)" fill="#60ED65"/>
<rect x="107.397" y="79.3971" width="6.39713" height="6.39713" rx="1" transform="rotate(-180 107.397 79.3971)" fill="#60ED65"/>
<rect x="111.397" y="73.3971" width="6.39713" height="6.39713" rx="1" transform="rotate(-180 111.397 73.3971)" fill="#60ED65"/>
<path d="M114.234 65.8971C114.234 66.4494 113.787 66.8971 113.234 66.8971L108.837 66.8971C108.285 66.8971 107.837 66.4494 107.837 65.8971L107.837 61.5C107.837 60.9477 108.285 60.5 108.837 60.5L113.234 60.5C113.787 60.5 114.234 60.9477 114.234 61.5L114.234 65.8971Z" fill="#60ED65"/>
<rect x="117.397" y="60.3971" width="6.39713" height="6.39713" rx="1" transform="rotate(-180 117.397 60.3971)" fill="#60ED65"/>
<defs>
<linearGradient id="paint0_linear_18_83" x1="186" y1="12.5" x2="336" y2="12.5" gradientUnits="userSpaceOnUse">
<stop stop-color="#FBF2E0" stop-opacity="0"/>
<stop offset="0.5625" stop-color="#ADB2B9"/>
</linearGradient>
<linearGradient id="paint1_linear_18_83" x1="24.6746" y1="10.9665" x2="186.431" y2="10.9665" gradientUnits="userSpaceOnUse">
<stop stop-color="#FBFBFC"/>
<stop offset="1" stop-color="#F0F1F2" stop-opacity="0"/>
</linearGradient>
<linearGradient id="paint2_linear_18_83" x1="28.6555" y1="8" x2="28.6555" y2="169.756" gradientUnits="userSpaceOnUse">
<stop stop-color="#FBFBFC"/>
<stop offset="1" stop-color="#F0F1F2" stop-opacity="0"/>
</linearGradient>
</defs>
</svg>
