<svg width="159" height="176" viewBox="0 0 159 176" fill="none" xmlns="http://www.w3.org/2000/svg">
<rect x="7" y="7" width="147" height="145" fill="#E4CC98"/>
<rect x="11" y="156" width="136" height="17" fill="#E4CC98"/>
<path d="M5 12H14V138C14 141.866 10.866 145 7 145H5V12Z" fill="url(#paint0_linear_4_53)"/>
<path d="M152 153L143 153L143 27C143 23.134 146.134 20 150 20L152 20L152 153Z" fill="url(#paint1_linear_4_53)"/>
<path d="M152 144L152 153L26 153C22.134 153 19 149.866 19 146L19 144L152 144Z" fill="url(#paint2_linear_4_53)"/>
<path d="M145 159L145 169L19 169C15.134 169 12 165.866 12 162L12 159L145 159Z" fill="url(#paint3_linear_4_53)"/>
<path d="M7 4H145V8C145 11.866 141.866 15 138 15H7V4Z" fill="url(#paint4_linear_4_53)"/>
<path d="M29 103H134V104C134 107.866 130.866 111 127 111H30C29.4477 111 29 110.552 29 110V103Z" fill="url(#paint5_linear_4_53)"/>
<path d="M129 98H136V99.875C136 103.258 133.258 106 129.875 106V106C129.392 106 129 105.608 129 105.125V98Z" fill="url(#paint6_linear_4_53)"/>
<path d="M14 159H21V160.875C21 164.258 18.2577 167 14.875 167V167C14.3918 167 14 166.608 14 166.125V159Z" fill="url(#paint7_linear_4_53)"/>
<g filter="url(#filter0_d_4_53)">
<rect x="28" y="27" width="101" height="72" fill="#AAE1F8"/>
</g>
<rect x="28" y="93" width="104" height="6" fill="#45ABF3"/>
<rect x="28" y="87" width="104" height="6" fill="url(#paint8_linear_4_53)"/>
<rect x="117" y="97" width="75" height="6" transform="rotate(-90 117 97)" fill="url(#paint9_linear_4_53)"/>
<path d="M29 25H71V29C71 31.2091 69.2091 33 67 33H29V25Z" fill="url(#paint10_linear_4_53)"/>
<path d="M35 30L35 52C35 54.7614 32.7614 57 30 57L28 57L28 30L35 30Z" fill="url(#paint11_linear_4_53)"/>
<rect x="129" y="25" width="76" height="6" transform="rotate(90 129 25)" fill="#45ABF3"/>
<path d="M123 87L123 93L117 93L117 91C117 88.7909 118.791 87 121 87L123 87Z" fill="#45ABF3"/>
<path d="M30 87C32.2091 87 34 88.7909 34 91L34 93L28 93L28 87L30 87Z" fill="#45ABF3"/>
<path d="M35 27L35 32C35 33.6569 33.6569 35 32 35L28 35L28 27L35 27Z" fill="#45ABF3"/>
<path d="M7 155C7 153.343 8.34315 152 10 152H149C150.657 152 152 153.343 152 155V159H7V155Z" fill="#010108"/>
<path d="M3 152C1.34315 152 1.60169e-08 150.657 3.57746e-08 149L1.69333e-06 10C1.71309e-06 8.34315 1.34315 7 3 7L7 7L7 152L3 152Z" fill="#010108"/>
<path d="M7 3C7 1.34315 8.34315 0 10 0L149 0C150.657 0 152 1.34315 152 3V7L7 7V3Z" fill="#010108"/>
<path d="M28 23C28 21.3431 29.3431 20 31 20L126 20C127.657 20 129 21.3431 129 23V27L28 27V23Z" fill="#010108"/>
<path d="M129 103C129 104.657 127.657 106 126 106L31 106C29.3431 106 28 104.657 28 103L28 99L129 99L129 103Z" fill="#010108"/>
<path d="M133 27C134.657 27 136 28.3431 136 30L136 96C136 97.6569 134.657 99 133 99L129 99L129 27L133 27Z" fill="#010108"/>
<path d="M24 99C22.3431 99 21 97.6569 21 96L21 30C21 28.3431 22.3431 27 24 27L28 27L28 99L24 99Z" fill="#010108"/>
<path d="M156 7C157.657 7 159 8.34315 159 10L159 149C159 150.657 157.657 152 156 152L152 152L152 7L156 7Z" fill="#010108"/>
<path d="M7 169H152V173C152 174.657 150.657 176 149 176H10C8.34315 176 7 174.657 7 173V169Z" fill="#010108"/>
<rect x="7" y="156" width="7" height="13" fill="#010108"/>
<rect x="145" y="156" width="7" height="13" fill="#010108"/>
<rect x="60" y="43" width="8" height="17" rx="2" fill="#010108"/>
<rect x="21" y="129" width="8" height="13" rx="2" fill="#010108"/>
<rect x="96.6832" y="76.4365" width="8" height="33.1935" rx="2" transform="rotate(89.8526 96.6832 76.4365)" fill="#010108"/>
<rect x="127.909" y="121.988" width="8" height="37.9092" rx="2" transform="rotate(89.8526 127.909 121.988)" fill="#010108"/>
<rect x="105.357" y="70" width="8" height="8.35651" rx="2" transform="rotate(89.8526 105.357 70)" fill="#010108"/>
<rect x="63.3565" y="70" width="8" height="8.35651" rx="2" transform="rotate(89.8526 63.3565 70)" fill="#010108"/>
<path d="M13.3565 7.00515C14.4611 7.0023 15.3588 7.89543 15.3617 8.99999L15.3719 13C15.3748 14.1045 14.4817 15.0023 13.3771 15.0051L9.0206 15.0163C7.91603 15.0192 7.0183 14.126 7.01546 13.0215L7.00002 7.0215L13.3565 7.00515Z" fill="#010108"/>
<path d="M152.357 7L152.372 13C152.375 14.1045 151.482 15.0023 150.377 15.0051L146.021 15.0163C144.916 15.0192 144.018 14.126 144.015 13.0215L144.005 9.0215C144.002 7.91693 144.895 7.0192 146 7.01636L152.357 7Z" fill="#010108"/>
<rect x="153.357" y="145" width="8" height="8.35651" rx="2" transform="rotate(89.8526 153.357 145)" fill="#010108"/>
<rect x="14.3565" y="145" width="8" height="8.35651" rx="2" transform="rotate(89.8526 14.3565 145)" fill="#010108"/>
<rect x="90" y="43" width="8" height="17" rx="2" fill="#010108"/>
<defs>
<filter id="filter0_d_4_53" x="24" y="27" width="109" height="80" filterUnits="userSpaceOnUse" color-interpolation-filters="sRGB">
<feFlood flood-opacity="0" result="BackgroundImageFix"/>
<feColorMatrix in="SourceAlpha" type="matrix" values="0 0 0 0 0 0 0 0 0 0 0 0 0 0 0 0 0 0 127 0" result="hardAlpha"/>
<feOffset dy="4"/>
<feGaussianBlur stdDeviation="2"/>
<feComposite in2="hardAlpha" operator="out"/>
<feColorMatrix type="matrix" values="0 0 0 0 0 0 0 0 0 0 0 0 0 0 0 0 0 0 0.25 0"/>
<feBlend mode="normal" in2="BackgroundImageFix" result="effect1_dropShadow_4_53"/>
<feBlend mode="normal" in="SourceGraphic" in2="effect1_dropShadow_4_53" result="shape"/>
</filter>
<linearGradient id="paint0_linear_4_53" x1="9.5" y1="12" x2="9.5" y2="145" gradientUnits="userSpaceOnUse">
<stop offset="0.461538" stop-color="#FBF2E0"/>
<stop offset="1" stop-color="#FBF2E0" stop-opacity="0"/>
</linearGradient>
<linearGradient id="paint1_linear_4_53" x1="147.5" y1="153" x2="147.5" y2="20" gradientUnits="userSpaceOnUse">
<stop offset="0.461538" stop-color="#A28F63"/>
<stop offset="1" stop-color="#FBF2E0" stop-opacity="0"/>
</linearGradient>
<linearGradient id="paint2_linear_4_53" x1="152" y1="148.5" x2="19" y2="148.5" gradientUnits="userSpaceOnUse">
<stop offset="0.461538" stop-color="#AB9769"/>
<stop offset="1" stop-color="#FBF2E0" stop-opacity="0"/>
</linearGradient>
<linearGradient id="paint3_linear_4_53" x1="145" y1="164" x2="12" y2="164" gradientUnits="userSpaceOnUse">
<stop offset="0.461538" stop-color="#AB9769"/>
<stop offset="1" stop-color="#FBF2E0" stop-opacity="0"/>
</linearGradient>
<linearGradient id="paint4_linear_4_53" x1="7" y1="9.5" x2="145" y2="9.5" gradientUnits="userSpaceOnUse">
<stop offset="0.552885" stop-color="#FBF2E0"/>
<stop offset="1" stop-color="#FBF2E0" stop-opacity="0"/>
</linearGradient>
<linearGradient id="paint5_linear_4_53" x1="29" y1="107" x2="134" y2="107" gradientUnits="userSpaceOnUse">
<stop offset="0.581731" stop-color="#FBF2E0"/>
<stop offset="1" stop-color="#FBF2E0" stop-opacity="0"/>
</linearGradient>
<linearGradient id="paint6_linear_4_53" x1="129" y1="102" x2="136" y2="102" gradientUnits="userSpaceOnUse">
<stop offset="0.581731" stop-color="#FBF2E0"/>
<stop offset="1" stop-color="#FBF2E0" stop-opacity="0"/>
</linearGradient>
<linearGradient id="paint7_linear_4_53" x1="14" y1="163" x2="21" y2="163" gradientUnits="userSpaceOnUse">
<stop offset="0.581731" stop-color="#FBF2E0"/>
<stop offset="1" stop-color="#FBF2E0" stop-opacity="0"/>
</linearGradient>
<linearGradient id="paint8_linear_4_53" x1="80" y1="103" x2="80" y2="87" gradientUnits="userSpaceOnUse">
<stop offset="0.543269" stop-color="#45ABF3"/>
<stop offset="1" stop-color="#45ABF3" stop-opacity="0"/>
</linearGradient>
<linearGradient id="paint9_linear_4_53" x1="154.5" y1="113" x2="154.5" y2="97" gradientUnits="userSpaceOnUse">
<stop offset="0.543269" stop-color="#45ABF3"/>
<stop offset="1" stop-color="#45ABF3" stop-opacity="0"/>
</linearGradient>
<linearGradient id="paint10_linear_4_53" x1="29" y1="29" x2="71" y2="29" gradientUnits="userSpaceOnUse">
<stop stop-color="#FBF2E0"/>
<stop offset="1" stop-color="white" stop-opacity="0"/>
</linearGradient>
<linearGradient id="paint11_linear_4_53" x1="31" y1="17" x2="31.5" y2="57" gradientUnits="userSpaceOnUse">
<stop stop-color="#FBF2E0"/>
<stop offset="1" stop-color="#F8F4EA" stop-opacity="0"/>
</linearGradient>
</defs>
</svg>
