<svg width="158" height="203" viewBox="0 0 158 203" fill="none" xmlns="http://www.w3.org/2000/svg">
<rect x="7" y="8.00525" width="107" height="190" fill="#F0F1F2"/>
<rect x="114" y="32.0052" width="39" height="11" fill="#F0F1F2"/>
<rect x="104" y="24.0052" width="39" height="11" fill="#F0F1F2"/>
<rect x="94" y="15.0052" width="39" height="11" fill="#F0F1F2"/>
<rect x="89" y="7.00525" width="39" height="11" fill="#F0F1F2"/>
<rect x="84" y="43.0052" width="69" height="154" fill="#F0F1F2"/>
<path d="M0 11.0052C0 9.34839 1.34315 8.00525 3 8.00525H8V195.005H3C1.34315 195.005 0 193.662 0 192.005V11.0052Z" fill="#010316"/>
<path d="M150 31.0052H155C156.657 31.0052 158 32.3484 158 34.0052V192.005C158 193.662 156.657 195.005 155 195.005H150V31.0052Z" fill="#010316"/>
<path d="M150 195.005L150 200.005C150 201.662 148.657 203.005 147 203.005L9 203.005C7.34314 203.005 6 201.662 6 200.005L6 195.005L150 195.005Z" fill="#010316"/>
<path d="M123.289 0.00778163C124.945 0.00348395 126.292 1.34314 126.296 2.99999L126.309 7.99997L8.02076 8.3068L8.00779 3.30682C8.00349 1.64997 9.34315 0.303343 11 0.299046L123.289 0.00778163Z" fill="#010316"/>
<rect x="126" y="8.00525" width="8" height="8" rx="2" fill="#010316"/>
<rect x="110" y="7.00525" width="8" height="38" rx="1" fill="#010316"/>
<rect x="134" y="16.0052" width="8" height="8" rx="2" fill="#010316"/>
<path d="M117 48.291C117 47.0286 118.023 46.0052 119.286 46.0052H149C149.552 46.0052 150 46.453 150 47.0052V53.0052C150 53.5575 149.552 54.0052 149 54.0052H122.714C119.558 54.0052 117 51.4469 117 48.291V48.291Z" fill="url(#paint0_linear_4_53)"/>
<path d="M107.333 40.0052C104.388 40.0052 102 37.6174 102 34.6719L102 8.00525C102 7.45296 102.448 7.00525 103 7.00525L109 7.00525C109.552 7.00525 110 7.45296 110 8.00525L110 37.3386C110 38.8113 108.806 40.0052 107.333 40.0052V40.0052Z" fill="url(#paint1_linear_4_53)"/>
<rect x="30" y="24.0052" width="8" height="29" rx="3" fill="#010316"/>
<path d="M62 27.0052C62 25.3484 63.3431 24.0052 65 24.0052H67C68.6569 24.0052 70 25.3484 70 27.0052V44.0052C70 45.1098 69.1046 46.0052 68 46.0052H65C63.3431 46.0052 62 44.6621 62 43.0052V27.0052Z" fill="#010316"/>
<path d="M78 27.0052C78 25.3484 79.3431 24.0052 81 24.0052H83C84.6569 24.0052 86 25.3484 86 27.0052V43.0052C86 44.6621 84.6569 46.0052 83 46.0052H80C78.8954 46.0052 78 45.1098 78 44.0052V27.0052Z" fill="#010316"/>
<rect x="70" y="45.0052" width="8" height="8" rx="2" fill="#010316"/>
<rect x="30" y="24.0052" width="24" height="8" rx="3" fill="#010316"/>
<rect x="30" y="46.0052" width="24" height="8" rx="3" fill="#010316"/>
<rect x="142" y="24.0052" width="8" height="8" rx="2" fill="#010316"/>
<rect x="110" y="39.0052" width="40" height="8" rx="1" fill="#010316"/>
<path d="M30 138.005C30 137.453 30.4477 137.005 31 137.005H92C92.5523 137.005 93 137.453 93 138.005V142.005C93 143.662 91.6569 145.005 90 145.005H33C31.3431 145.005 30 143.662 30 142.005V138.005Z" fill="#AEB1B4"/>
<path d="M24 76.0052C24 74.3484 25.3431 73.0052 27 73.0052H83C84.6569 73.0052 86 74.3484 86 76.0052V81.0052H25C24.4477 81.0052 24 80.5575 24 80.0052V76.0052Z" fill="#67BDE7"/>
<path d="M134 24.0052H142V30.0052C142 31.1098 141.105 32.0052 140 32.0052H137C135.343 32.0052 134 30.6621 134 29.0052V24.0052Z" fill="url(#paint2_linear_4_53)"/>
<path d="M142 32.0052H150V39.0052H145C143.343 39.0052 142 37.6621 142 36.0052V32.0052Z" fill="url(#paint3_linear_4_53)"/>
<path d="M126 16.0052H134V22.0052C134 23.1098 133.105 24.0052 132 24.0052H129C127.343 24.0052 126 22.6621 126 21.0052V16.0052Z" fill="url(#paint4_linear_4_53)"/>
<path d="M118 8.00525H126V14.0052C126 15.1098 125.105 16.0052 124 16.0052H121C119.343 16.0052 118 14.6621 118 13.0052V8.00525Z" fill="url(#paint5_linear_4_53)"/>
<path d="M27 141.005C25.3431 141.005 24 139.662 24 138.005L24 82.0052C24 80.3484 25.3431 79.0052 27 79.0052L32 79.0052L32 140.005C32 140.558 31.5523 141.005 31 141.005L27 141.005Z" fill="#67BDE7"/>
<path d="M90 75.0052C91.6569 75.0052 93 76.3484 93 78.0052L93 137.005C93 137.558 92.5523 138.005 92 138.005L86 138.005C85.4477 138.005 85 137.558 85 137.005L85 76.0052C85 75.453 85.4477 75.0052 86 75.0052L90 75.0052Z" fill="#AEB1B4"/>
<rect x="30" y="79.0052" width="56" height="62" fill="#ACE8FC"/>
<rect x="102" y="73.0052" width="33" height="8" rx="1" fill="#9FA2A5"/>
<rect x="18" y="156.005" width="120" height="8" rx="1" fill="#9FA2A5"/>
<rect x="18" y="171.005" width="120" height="8" rx="1" fill="#9FA2A5"/>
<rect x="102" y="88.0052" width="33" height="8" rx="1" fill="#9FA2A5"/>
<rect x="102" y="103.005" width="33" height="8" rx="1" fill="#9FA2A5"/>
<rect x="102" y="118.005" width="33" height="8" rx="1" fill="#9FA2A5"/>
<path d="M30 134.005C30 131.244 32.2386 129.005 35 129.005H80C83.3137 129.005 86 131.692 86 135.005V140.005C86 140.558 85.5523 141.005 85 141.005H31C30.4477 141.005 30 140.558 30 140.005V134.005Z" fill="#006EE0"/>
<path d="M34 127.005C34 124.796 35.7909 123.005 38 123.005H74C77.3137 123.005 80 125.692 80 129.005V130.577C80 131.129 79.5523 131.577 79 131.577H35C34.4477 131.577 34 131.129 34 130.577V127.005Z" fill="#006EE0"/>
<rect x="102" y="133.005" width="33" height="8" rx="1" fill="#9FA2A5"/>
<path d="M74 118.005C74 117.453 74.4477 117.005 75 117.005H78C80.2091 117.005 82 118.796 82 121.005V128.005C82 128.558 81.5523 129.005 81 129.005H75C74.4477 129.005 74 128.558 74 128.005V118.005Z" fill="#6F3614"/>
<path d="M32 122.005C32 119.796 33.7909 118.005 36 118.005H77C77.5523 118.005 78 118.453 78 119.005V129.005C78 129.558 77.5523 130.005 77 130.005H33C32.4477 130.005 32 129.558 32 129.005V122.005Z" fill="#6F3614"/>
<rect x="36" y="98.0052" width="8" height="25" rx="1" fill="#6F3614"/>
<rect x="70" y="98.0052" width="8" height="25" rx="1" fill="#6F3614"/>
<path d="M39 87.0052C39 85.3484 40.3431 84.0052 42 84.0052H71C72.6569 84.0052 74 85.3484 74 87.0052V91.0052C74 91.5575 73.5523 92.0052 73 92.0052H40C39.4477 92.0052 39 91.5575 39 91.0052V87.0052Z" fill="#6F3614"/>
<path d="M36 92.0052C36 90.3484 37.3431 89.0052 39 89.0052H75C76.6569 89.0052 78 90.3484 78 92.0052V98.0052C78 98.5575 77.5523 99.0052 77 99.0052H37C36.4477 99.0052 36 98.5575 36 98.0052V92.0052Z" fill="#6F3614"/>
<path d="M36 110.005C36 108.348 37.3431 107.005 39 107.005H44V115.005H39C37.3431 115.005 36 113.662 36 112.005V110.005Z" fill="#FDC481"/>
<path d="M70 107.005H75C76.6569 107.005 78 108.348 78 110.005V112.005C78 113.662 76.6569 115.005 75 115.005H70V107.005Z" fill="#FDC481"/>
<path d="M51 121.005H64V130.005C64 131.662 62.6569 133.005 61 133.005H54C52.3431 133.005 51 131.662 51 130.005V121.005Z" fill="#FDC481"/>
<path d="M43 100.005C43 99.453 43.4477 99.0052 44 99.0052H71C71.5523 99.0052 72 99.453 72 100.005V120.005C72 121.662 70.6569 123.005 69 123.005H46C44.3431 123.005 43 121.662 43 120.005V100.005Z" fill="#FDC481"/>
<rect x="46" y="104.005" width="6" height="7" rx="2" fill="#5DB3E2"/>
<rect x="62" y="104.005" width="6" height="7" rx="2" fill="#5DB3E2"/>
<defs>
<linearGradient id="paint0_linear_4_53" x1="117" y1="50.0052" x2="150" y2="50.0052" gradientUnits="userSpaceOnUse">
<stop stop-color="#F0F1F2" stop-opacity="0"/>
<stop offset="1" stop-color="#010316"/>
</linearGradient>
<linearGradient id="paint1_linear_4_53" x1="106" y1="40.0052" x2="106" y2="7.00525" gradientUnits="userSpaceOnUse">
<stop stop-color="#F0F1F2" stop-opacity="0"/>
<stop offset="1" stop-color="#010316"/>
</linearGradient>
<linearGradient id="paint2_linear_4_53" x1="140" y1="24.0052" x2="131" y2="24.0052" gradientUnits="userSpaceOnUse">
<stop stop-color="#67BDE7" stop-opacity="0.8"/>
<stop offset="1" stop-color="#FBF2E0" stop-opacity="0"/>
</linearGradient>
<linearGradient id="paint3_linear_4_53" x1="148" y1="32.0052" x2="139" y2="32.0052" gradientUnits="userSpaceOnUse">
<stop stop-color="#67BDE7" stop-opacity="0.8"/>
<stop offset="1" stop-color="#FBF2E0" stop-opacity="0"/>
</linearGradient>
<linearGradient id="paint4_linear_4_53" x1="132" y1="16.0052" x2="123" y2="16.0052" gradientUnits="userSpaceOnUse">
<stop stop-color="#67BDE7" stop-opacity="0.8"/>
<stop offset="1" stop-color="#FBF2E0" stop-opacity="0"/>
</linearGradient>
<linearGradient id="paint5_linear_4_53" x1="124" y1="8.00525" x2="115" y2="8.00525" gradientUnits="userSpaceOnUse">
<stop stop-color="#67BDE7" stop-opacity="0.8"/>
<stop offset="1" stop-color="#FBF2E0" stop-opacity="0"/>
</linearGradient>
</defs>
</svg>
