<svg width="190" height="176" viewBox="0 0 190 176" fill="none" xmlns="http://www.w3.org/2000/svg">
<rect x="8" y="7" width="67" height="162" fill="#449BF9"/>
<rect x="63.7126" y="19.3413" width="111.497" height="20.479" fill="#449BF9"/>
<rect x="60.2994" y="36.4072" width="121.737" height="131.976" fill="#449BF9"/>
<path d="M7.96408 155.455C7.96408 153.798 9.30723 152.455 10.9641 152.455H182.036V167.245H7.96408V155.455Z" fill="#2D86F4"/>
<path d="M14.7904 146.353C14.7904 144.696 16.1336 143.353 17.7904 143.353H182.036V159.281H14.7904V146.353Z" fill="#2D86F4"/>
<path d="M39.8204 138.389C39.8204 136.732 41.1635 135.389 42.8204 135.389H182.036V145.629H39.8204V138.389Z" fill="#2D86F4"/>
<path d="M65.988 129.287C65.988 127.631 67.3312 126.287 68.988 126.287H183.174V135.389H65.988V129.287Z" fill="#2D86F4"/>
<path d="M83.0539 122.461C83.0539 120.804 84.397 119.461 86.0539 119.461H184.311V128.563H83.0539V122.461Z" fill="#2D86F4"/>
<path d="M100.12 113.359C100.12 111.702 101.463 110.359 103.12 110.359H182.036V124.012H100.12V113.359Z" fill="#2D86F4"/>
<path d="M118.323 105.395C118.323 103.738 119.667 102.395 121.323 102.395H183.174V110.359H118.323V105.395Z" fill="#2D86F4"/>
<path d="M127.425 97.4312C127.425 95.7743 128.768 94.4312 130.425 94.4312H183.174V102.395H127.425V97.4312Z" fill="#2D86F4"/>
<path d="M135.389 90.6047C135.389 88.9479 136.732 87.6047 138.389 87.6047H183.174V97.8443H135.389V90.6047Z" fill="#2D86F4"/>
<path d="M144.491 81.503C144.491 79.8462 145.834 78.5031 147.491 78.5031H183.174V89.8803H144.491V81.503Z" fill="#2D86F4"/>
<path d="M152.455 72.4012C152.455 70.7444 153.798 69.4012 155.455 69.4012H184.311V78.503H152.455V72.4012Z" fill="#2D86F4"/>
<path d="M161.557 64.4371C161.557 62.7803 162.9 61.4371 164.557 61.4371H182.036V69.4012H161.557V64.4371Z" fill="#2D86F4"/>
<path d="M167.246 56.473C167.246 54.8162 168.589 53.473 170.246 53.473H182.036V61.4371H167.246V56.473Z" fill="#2D86F4"/>
<path d="M174.072 48.509C174.072 46.8522 175.415 45.509 177.072 45.509H183.174V53.4731H174.072V48.509Z" fill="#2D86F4"/>
<path d="M23.8922 32.5808C23.8922 30.924 25.2354 29.5808 26.8922 29.5808H69.4012V37.5449H23.8922V32.5808Z" fill="#2D86F4"/>
<path d="M14.7904 40.5449C14.7904 38.8881 16.1336 37.5449 17.7904 37.5449H61.4371V45.509H14.7904V40.5449Z" fill="#2D86F4"/>
<path d="M14.7904 55.473C14.7904 54.3685 15.6858 53.473 16.7904 53.473H63.988C65.0926 53.473 65.988 54.3685 65.988 55.473V59.4371C65.988 60.5417 65.0926 61.4371 63.988 61.4371H16.7904C15.6858 61.4371 14.7904 60.5417 14.7904 59.4371V55.473Z" fill="url(#paint0_linear_18_135)"/>
<rect x="8" y="162" width="174" height="8" fill="url(#paint1_linear_18_135)"/>
<rect x="64" y="46" width="11" height="7" fill="url(#paint2_linear_18_135)"/>
<rect x="7.96408" y="7.96411" width="58.024" height="7.96407" fill="url(#paint3_linear_18_135)"/>
<rect x="72.8144" y="37.5449" width="109.222" height="7.96407" fill="url(#paint4_linear_18_135)"/>
<path d="M7.96408 2C7.96408 0.895432 8.85951 0 9.96408 0H63.988C65.0926 0 65.988 0.89543 65.988 2V7.96407H7.96408V2Z" fill="#020418"/>
<path d="M73.9521 15.6527C73.9521 14.5481 74.8475 13.6527 75.9521 13.6527H173.21C174.314 13.6527 175.21 14.5481 175.21 15.6527V21.6168H73.9521V15.6527Z" fill="#020418"/>
<path d="M65.988 7.6886C65.988 6.58403 66.8835 5.6886 67.988 5.6886H74.2276C75.3321 5.6886 76.2276 6.58403 76.2276 7.6886V13.6527H65.988V7.6886Z" fill="#020418"/>
<path d="M171.796 23.6168C171.796 22.5123 172.692 21.6168 173.796 21.6168H177.76C178.865 21.6168 179.76 22.5123 179.76 23.6168V29.5809H171.796V23.6168Z" fill="#020418"/>
<path d="M182.036 37.5449H188C189.105 37.5449 190 38.4404 190 39.5449V165.246C190 166.35 189.105 167.246 188 167.246H182.036V37.5449Z" fill="#020418"/>
<path d="M7.96408 167.245L2.00002 167.245C0.895455 167.245 2.28099e-05 166.35 2.27133e-05 165.245L9.1382e-06 9.96406C9.04164e-06 8.85949 0.895439 7.96405 2.00001 7.96405L7.96407 7.96405L7.96408 167.245Z" fill="#020418"/>
<path d="M182.036 167.245L182.036 173.21C182.036 174.314 181.141 175.21 180.036 175.21L9.9641 175.21C8.85953 175.21 7.9641 174.314 7.9641 173.21L7.9641 167.245L182.036 167.245Z" fill="#020418"/>
<path d="M65.988 31.5808C65.988 30.4762 66.8835 29.5808 67.988 29.5808H180.036C181.141 29.5808 182.036 30.4762 182.036 31.5808V37.5449H65.988V31.5808Z" fill="#020418"/>
<path d="M59.1617 39.5449C59.1617 38.4404 60.0571 37.5449 61.1617 37.5449H73.9521V43.509C73.9521 44.6136 73.0567 45.509 71.9521 45.509H59.1617V39.5449Z" fill="#020418"/>
<path d="M14.7904 47.509C14.7904 46.4045 15.6858 45.509 16.7904 45.509H65.988V51.4731C65.988 52.5777 65.0926 53.4731 63.988 53.4731H16.7904C15.6858 53.4731 14.7904 52.5777 14.7904 51.4731V47.509Z" fill="#020418"/>
<defs>
<linearGradient id="paint0_linear_18_135" x1="14.7904" y1="56.8862" x2="65.988" y2="56.8862" gradientUnits="userSpaceOnUse">
<stop stop-color="#FDFDFD"/>
<stop offset="1" stop-color="#FDFDFD" stop-opacity="0"/>
</linearGradient>
<linearGradient id="paint1_linear_18_135" x1="183.706" y1="165.428" x2="8" y2="165.428" gradientUnits="userSpaceOnUse">
<stop stop-color="#0557C5"/>
<stop offset="1" stop-color="#0557C5" stop-opacity="0"/>
</linearGradient>
<linearGradient id="paint2_linear_18_135" x1="64" y1="49" x2="75" y2="49" gradientUnits="userSpaceOnUse">
<stop stop-color="#FDFDFD"/>
<stop offset="1" stop-color="#FDFDFD" stop-opacity="0"/>
</linearGradient>
<linearGradient id="paint3_linear_18_135" x1="7.96408" y1="11.3773" x2="65.988" y2="11.3773" gradientUnits="userSpaceOnUse">
<stop stop-color="#FDFDFD"/>
<stop offset="1" stop-color="#FDFDFD" stop-opacity="0"/>
</linearGradient>
<linearGradient id="paint4_linear_18_135" x1="72.8144" y1="40.9581" x2="182.036" y2="40.9581" gradientUnits="userSpaceOnUse">
<stop stop-color="#FDFDFD"/>
<stop offset="1" stop-color="#FDFDFD" stop-opacity="0"/>
</linearGradient>
</defs>
</svg>
